<svg width="32" height="32" viewBox="0 0 32 32" fill="none" xmlns="http://www.w3.org/2000/svg">
  <rect width="32" height="32" rx="6" fill="url(#gradient)"/>
  <path d="M8 10C8 9.44772 8.44772 9 9 9H23C23.5523 9 24 9.44772 24 10V22C24 22.5523 23.5523 23 23 23H9C8.44772 23 8 22.5523 8 22V10Z" fill="white" fill-opacity="0.9"/>
  <path d="M10 12H22V13H10V12Z" fill="#9333ea"/>
  <path d="M10 15H20V16H10V15Z" fill="#9333ea"/>
  <path d="M10 18H18V19H10V18Z" fill="#9333ea"/>
  <path d="M12 6C12 5.44772 12.4477 5 13 5H19C19.5523 5 20 5.44772 20 6V8H12V6Z" fill="white" fill-opacity="0.7"/>
  <defs>
    <linearGradient id="gradient" x1="0" y1="0" x2="32" y2="32" gradientUnits="userSpaceOnUse">
      <stop stop-color="#9333ea"/>
      <stop offset="1" stop-color="#ec4899"/>
    </linearGradient>
  </defs>
</svg>